<?xml version="1.0" encoding="UTF-8"?>
<svg width="1200pt" height="1200pt" version="1.1" viewBox="0 0 1200 1200" xmlns="http://www.w3.org/2000/svg">
 <path d="m95.066 642.16 38.852-38.82 504.47 504.9-38.852 38.82z" fill="#007aff"/>
 <path d="m716.58 1030 388.33-387.8-40.172-40.211-387.9 388.23z" fill="#007aff"/>
 <path d="m616.55 929.89 387.9-388.23 43.742 43.703-387.9 388.23z" fill="#007aff"/>
 <path d="m150.45 586.73 45.105-45.07 504.47 504.9-45.105 45.07z" fill="#007aff"/>
 <path d="m831.71 568.52-49.516-49.555-173.44 173.59c-2.1992 2.1992-5.1797 3.4375-8.2891 3.4375s-6.0898-1.2344-8.2891-3.4375l-173.44-173.59-49.516 49.555 231.25 231.44z" fill="#007aff"/>
 <path d="m484.98 286.63 115.54-115.44 115.44 115.54-115.54 115.44z" fill="#007aff"/>
 <path d="m831.71 436.24-58.152-58.203-164.8 164.94c-2.1992 2.1992-5.1797 3.4375-8.2891 3.4375s-6.0898-1.2344-8.2891-3.4375l-164.8-164.94-58.152 58.203 231.25 231.44 231.25-231.44z" fill="#007aff"/>
 <path d="m831.71 286.68-231.25-231.44-231.25 231.44 231.25 231.44zm-371.54 8.2812c-4.5742-4.5781-4.5742-11.992 0-16.566l132-132.11c2.1992-2.1992 5.1797-3.4375 8.2891-3.4375s6.0898 1.2344 8.2891 3.4375l132 132.11c4.5742 4.5781 4.5742 11.992 0 16.566l-132 132.11c-2.1992 2.1992-5.1797 3.4375-8.2891 3.4375s-6.0898-1.2344-8.2891-3.4375z" fill="#007aff"/>
</svg>
